<svg id="Capa_1" enable-background="new 0 0 512 512" height="512" viewBox="0 0 512 512" width="512" xmlns="http://www.w3.org/2000/svg"><path d="m512 256c0 8.399-6.599 15-15 15-19.501 0-37 12.599-43.299 30l-31.201 30h-333l-31.201-30c-6.299-17.401-23.798-30-43.299-30-8.401 0-15-6.601-15-15 0-132.601 106-225 256-225s256 92.399 256 225z" fill="#e6ffff"/><path d="m512 256c0 8.399-6.599 15-15 15-19.501 0-37 12.599-43.299 30l-31.201 30h-166.5v-300c150 0 256 92.399 256 225z" fill="#d9f2ff"/><path d="m271 106v150c0 8.399-6.599 15-15 15s-15-6.601-15-15v-150c0-8.401 6.599-15 15-15s15 6.599 15 15z" fill="#697c86"/><path d="m271 106v150c0 8.399-6.599 15-15 15v-180c8.401 0 15 6.599 15 15z" fill="#596c76"/><path d="m301 136c0 8.399-6.599 15-15 15h-60c-8.401 0-15-6.601-15-15 0-8.401 6.599-15 15-15h60c8.401 0 15 6.599 15 15z" fill="#697c86"/><path d="m331 196c0 41.4-33.6 75-75 75s-75-33.6-75-75c0-8.401 6.599-15 15-15s15 6.599 15 15c0 24.899 20.099 45 45 45s45-20.101 45-45c0-8.401 6.599-15 15-15s15 6.599 15 15z" fill="#697c86"/><path d="m286 151h-30v-30h30c8.401 0 15 6.599 15 15 0 8.399-6.599 15-15 15z" fill="#596c76"/><path d="m331 196c0 41.4-33.6 75-75 75v-30c24.901 0 45-20.101 45-45 0-8.401 6.599-15 15-15s15 6.599 15 15z" fill="#596c76"/><path d="m453.701 301c-1.501 4.799-2.701 9.6-2.701 15v60c0 5.099-.901 10.199-2.1 15l-37.2 30h-300l-48.6-30c-1.199-4.801-2.1-9.901-2.1-15v-60c0-5.4-1.199-10.201-2.701-15z" fill="#ffda2d"/><path d="m453.701 301c-1.501 4.799-2.701 9.6-2.701 15v60c0 5.099-.901 10.199-2.1 15l-37.2 30h-155.7v-120z" fill="#fdbf00"/><path d="m448.9 391c-13.2 51.599-92.999 90-192.9 90s-179.7-38.401-192.9-90z" fill="#697c86"/><path d="m256 391h192.9c-13.2 51.599-92.999 90-192.9 90z" fill="#596c76"/></svg>